<?xml version="1.0" encoding="utf-8"?>
<!-- Generator: Adobe Illustrator 26.5.0, SVG Export Plug-In . SVG Version: 6.00 Build 0)  -->
<svg version="1.1" id="Layer_1" xmlns="http://www.w3.org/2000/svg" xmlns:xlink="http://www.w3.org/1999/xlink" x="0px" y="0px"
	 viewBox="0 0 294 63" style="enable-background:new 0 0 294 63;" xml:space="preserve">
<style type="text/css">
	.st0{fill:#FFFFFF;}
</style>
<path class="st0" d="M-47.4,125.2H-21v8.6h-2.5l-1.9-6.5h-12.3v14.4h9.3l1.3-4.2h1.8v9.9h-1.8l-1.3-3.6h-9.3v15.4h13.2l1.9-6.5h2.5
	v8.5h-27.4v-1.8l4.8-1.1v-30.2l-4.8-1.2V125.2z M-15.4,137.9h7.8v6.2c1.4-4.4,4.3-6.6,8.7-6.6c2,0,3.6,0.5,4.8,1.4
	c1.2,0.9,2,2.5,2.5,4.7c1.4-4,4.2-6,8.2-6c2.3,0,4.2,0.7,5.5,2.1c1.3,1.3,2,3.3,2,6v12.9l4,1v1.8H16v-1.8l3.5-1.1v-11.6
	c0-2.6-0.4-4.4-1.1-5.4c-0.7-1-1.8-1.5-3.2-1.5c-4.5,0-6.8,4.2-6.8,12.6v6l4.1,1v1.8H0.3v-1.8l3.6-1v-10.9c0-2.8-0.3-4.8-0.9-5.9
	c-0.6-1.2-1.6-1.8-3.1-1.8c-1.4,0-2.6,0.4-3.6,1.1c-0.9,0.7-1.6,1.7-2.1,2.9c-0.9,2.2-1.4,4.9-1.4,8.1v6.4l3.7,1.1v1.8h-12.1v-1.8
	l3.8-1v-18.1l-3.6-0.6V137.9z M51.2,149.7c0-3.5-0.5-6-1.6-7.7c-1.1-1.7-2.8-2.5-5.2-2.5c-2.4,0-4.1,0.8-5.3,2.4
	c-1.1,1.6-1.7,4.2-1.7,7.7s0.6,6.1,1.7,7.7c1.1,1.5,2.8,2.3,5.1,2.3c2.3,0,4.1-0.8,5.2-2.4C50.6,155.7,51.2,153.2,51.2,149.7z
	 M32.6,149.7c0-3.8,1.1-6.8,3.2-8.9c2.1-2.2,5-3.3,8.5-3.3c3.6,0,6.4,1.1,8.5,3.2s3.2,5.1,3.2,9s-1.1,6.8-3.2,8.9
	c-2.1,2-5,3.1-8.5,3.1c-3.6,0-6.4-1-8.5-3.1S32.6,153.5,32.6,149.7z M67.3,137.9h7v2h-7v14.9c0,1.9,0.2,3.2,0.7,3.9
	c0.4,0.7,1.2,1.1,2.2,1.1c1,0,2.3-0.2,4-0.7v1.8c-2.2,0.6-4.1,0.9-5.5,0.9c-3.9,0-5.9-2.4-5.9-7.1v-14.8h-4.1v-2h4.1V133l4.5-2.5
	V137.9z M77.2,137.9H85v20.5l3.4,1v1.8H77v-1.8l3.5-1.1v-18.1l-3.3-0.6V137.9z M78.8,127.7c0-0.9,0.3-1.5,0.8-2
	c0.6-0.5,1.3-0.8,2.3-0.8c1,0,1.7,0.3,2.3,0.8c0.6,0.5,0.9,1.2,0.9,2c0,0.8-0.3,1.5-0.8,2s-1.3,0.8-2.3,0.8c-1,0-1.7-0.2-2.3-0.7
	C79.1,129.3,78.8,128.6,78.8,127.7z M111.1,149.7c0-3.5-0.5-6-1.6-7.7c-1.1-1.7-2.8-2.5-5.2-2.5c-2.4,0-4.1,0.8-5.3,2.4
	c-1.1,1.6-1.7,4.2-1.7,7.7s0.6,6.1,1.7,7.7c1.1,1.5,2.8,2.3,5.1,2.3c2.3,0,4.1-0.8,5.2-2.4C110.5,155.7,111.1,153.2,111.1,149.7z
	 M92.5,149.7c0-3.8,1.1-6.8,3.2-8.9c2.1-2.2,5-3.3,8.5-3.3c3.6,0,6.4,1.1,8.5,3.2s3.2,5.1,3.2,9s-1.1,6.8-3.2,8.9
	c-2.1,2-5,3.1-8.5,3.1c-3.6,0-6.4-1-8.5-3.1S92.5,153.5,92.5,149.7z M121.4,137.9h7.8v6.8c1.3-4.7,4.1-7.1,8.5-7.1
	c2.6,0,4.5,0.8,5.8,2.4c1.2,1.6,1.9,3.7,1.9,6.5v11.9l3.7,1.1v1.8h-11.4v-1.8l3.2-1V147c0-2.6-0.4-4.4-1.1-5.6
	c-0.7-1.1-1.7-1.7-3.2-1.7c-2.3,0-4,1.1-5.3,3.3c-1.2,2.1-1.8,5.4-1.8,9.7v5.7l3.4,1v1.8h-11.5v-1.8l3.6-1v-18.1l-3.6-0.7V137.9z
	 M177.3,161.2h-8.4v-4.8c-1.5,3.5-4.1,5.3-7.9,5.3c-2.5,0-4.4-0.5-5.8-1.6c-1.3-1.1-2-2.7-2-4.7c0-2.8,1.2-4.8,3.7-6
	c2.5-1.2,6.4-1.9,11.9-2v-2.1c0-2.3-0.5-3.8-1.4-4.6c-0.9-0.8-2.3-1.2-4.1-1.2c-1.8,0-3.4,0.4-4.8,1.2l-1.6,4.8h-1.8v-5.4
	c0.8-0.7,1.9-1.2,3.3-1.7c1.4-0.5,2.9-0.7,4.6-0.7c3.4,0,5.9,0.7,7.6,2c1.7,1.3,2.6,3.6,2.6,6.9v12l4,1.1V161.2z M162.2,159.6
	c2,0,3.6-0.8,4.8-2.4c1.2-1.6,1.8-4.4,1.8-8.3c-5.5,0-8.9,0.8-10.1,2.5c-0.6,0.8-0.9,2-0.9,3.6c0,1.6,0.3,2.7,1,3.5
	C159.5,159.3,160.6,159.6,162.2,159.6z M182.4,125.2h8v33.2l3.9,1.1v1.8h-12.2v-1.8l3.7-1v-30.9l-3.5-0.6V125.2z M198.9,125.2h8
	v33.2l3.9,1.1v1.8h-12.2v-1.8l3.7-1v-30.9l-3.5-0.6V125.2z M230.3,137.9h10.1v1.8l-3.8,0.6l-10,24.6c-1.4,3.3-2.5,5.4-3.4,6.4
	c-0.9,1-2.4,1.5-4.4,1.5h-2.1v-7h1.8l1.2,4.3c1-0.1,1.7-0.3,2.2-0.8c0.4-0.4,0.8-0.8,1-1.1s0.5-0.7,0.8-1.4c0.3-0.6,0.5-1.1,0.7-1.5
	c0.2-0.4,0.4-1,0.8-1.9c0.4-0.9,0.6-1.6,0.8-2.1l-9.2-20.7l-4-0.9v-1.8h12.2v1.8l-3.3,0.7l6.6,15.6l5.8-15.6l-3.7-0.6V137.9z"/>
<path class="st0" d="M96.7,120.9c-0.1-0.2-0.2-0.3-0.4-0.4c-0.2-0.1-0.3-0.2-0.5-0.3c-1.3-0.3-2.7-0.4-4-0.1
	c0.6-2.5,0.2-4.4-0.2-5.5c-0.1-0.4-0.4-0.7-0.7-0.8s-0.7-0.2-1.1-0.2c-1.3,0.3-2.5,0.8-3.6,1.6c-0.8-1.8-2-3.4-3.6-4.6
	c-0.3-0.2-0.6-0.3-0.9-0.3c-0.3,0-0.6,0.1-0.9,0.3c-1.6,1.2-2.8,2.8-3.6,4.6c-1.1-0.8-2.3-1.3-3.6-1.6c-0.4-0.1-0.7,0-1.1,0.2
	s-0.6,0.5-0.7,0.8c-0.4,1.1-0.7,3.1-0.2,5.5c-1.3-0.2-2.7-0.2-4,0.1c-0.2,0-0.4,0.1-0.5,0.3c-0.2,0.1-0.3,0.3-0.4,0.4
	c-0.2,0.3-0.3,0.8-0.1,1.2c0.4,1.5,1.7,4.4,5.7,6.7c3.9,2.3,7.5,2.3,9.4,2.3c1.9,0,5.4,0,9.4-2.3c4-2.3,5.2-5.2,5.7-6.7
	C97,121.7,96.9,121.3,96.7,120.9z M90.1,114.5c0.1,0,0.2,0,0.4,0.1c0.1,0.1,0.2,0.2,0.2,0.3c0.4,1.1,0.7,3.1,0,5.7c0,0,0,0.1,0,0.1
	c-0.3,1-0.7,1.9-1.2,2.8c-1.1,1.8-2.5,3.4-4.2,4.7l-0.3,0.2c1.3-1.7,2.5-4.2,2.5-7.9c0-1.5-0.2-3-0.7-4.4
	C87.7,115.3,88.9,114.8,90.1,114.5L90.1,114.5z M81.6,111.3c0.1-0.1,0.2-0.1,0.3-0.1c0.1,0,0.2,0,0.3,0.1c1.3,1,4.2,3.7,4.2,9.2
	c0,2.9-0.8,5.4-2.4,7.4c-0.6,0.8-1.3,1.5-2.1,2c-0.8-0.6-1.5-1.2-2.1-2c-1.6-2-2.4-4.5-2.4-7.4C77.4,115,80.3,112.3,81.6,111.3
	L81.6,111.3z M73,114.9c0-0.1,0.1-0.2,0.2-0.3c0.1-0.1,0.2-0.1,0.4-0.1c1.2,0.3,2.4,0.8,3.4,1.6c-0.5,1.4-0.7,2.9-0.7,4.4
	c0,3.7,1.2,6.2,2.5,7.9l-0.3-0.2c-1.7-1.3-3.1-2.9-4.2-4.7c-0.5-0.9-1-1.8-1.2-2.8l0-0.1C72.3,118,72.7,116,73,114.9L73,114.9z
	 M67.8,121.8c0-0.1,0-0.1,0-0.2c0-0.1,0-0.1,0.1-0.2c0.1-0.1,0.2-0.2,0.3-0.2c1.3-0.3,2.7-0.3,4.1,0c0.3,1,0.7,1.9,1.3,2.8
	c1.6,2.8,4,4.8,5.9,6c-2.2-0.2-4.4-0.9-6.3-2.1C69.4,125.8,68.2,123.2,67.8,121.8z M95.9,121.8c-0.4,1.4-1.6,4-5.2,6.1
	c-1.9,1.1-4.1,1.8-6.3,2.1c1.9-1.2,4.2-3.2,5.9-6c0.5-0.9,0.9-1.8,1.3-2.8c1.3-0.3,2.7-0.3,4,0c0.1,0,0.2,0.1,0.3,0.2
	c0,0.1,0.1,0.1,0.1,0.2C96,121.7,96,121.7,95.9,121.8L95.9,121.8z"/>
</svg>
