<svg width="294" height="63" viewBox="0 0 294 63" fill="none" xmlns="http://www.w3.org/2000/svg">
<path d="M4.76531 15H31.2133V23.592H28.7173L26.8453 17.064H14.5573V31.416H23.8213L25.1173 27.24H26.8933V37.176H25.1173L23.8213 33.528H14.5573V48.936H27.7093L29.5813 42.456H32.1253V51H4.76531V49.224L9.51731 48.12V17.928L4.76531 16.776V15ZM36.8387 27.72H44.6147V33.96C46.0547 29.544 48.9507 27.336 53.3027 27.336C55.2867 27.336 56.8707 27.8 58.0547 28.728C59.2387 29.656 60.0707 31.208 60.5507 33.384C61.9907 29.352 64.7107 27.336 68.7107 27.336C71.0467 27.336 72.8707 28.024 74.1827 29.4C75.5267 30.744 76.1987 32.728 76.1987 35.352V48.264L80.2307 49.224V51H68.2307V49.224L71.6867 48.168V36.552C71.6867 33.928 71.3347 32.136 70.6307 31.176C69.9267 30.184 68.8707 29.688 67.4627 29.688C62.9187 29.688 60.6467 33.88 60.6467 42.264V48.216L64.7267 49.224V51H52.5347V49.224L56.0867 48.216V37.32C56.0867 34.536 55.7827 32.568 55.1747 31.416C54.5667 30.232 53.5427 29.64 52.1027 29.64C50.6627 29.64 49.4787 30.008 48.5507 30.744C47.6227 31.448 46.9187 32.408 46.4387 33.624C45.5107 35.864 45.0467 38.568 45.0467 41.736V48.168L48.7907 49.224V51H36.6947V49.224L40.4867 48.216V30.072L36.8387 29.448V27.72ZM103.355 39.528C103.355 36.072 102.827 33.512 101.771 31.848C100.715 30.152 98.9874 29.304 96.5874 29.304C94.2194 29.304 92.4594 30.12 91.3074 31.752C90.1874 33.352 89.6274 35.928 89.6274 39.48C89.6274 43.032 90.1874 45.592 91.3074 47.16C92.4274 48.696 94.1394 49.464 96.4434 49.464C98.7794 49.464 100.507 48.68 101.627 47.112C102.779 45.512 103.355 42.984 103.355 39.528ZM84.7794 39.528C84.7794 35.752 85.8514 32.776 87.9954 30.6C90.1394 28.392 92.9714 27.288 96.4914 27.288C100.043 27.288 102.875 28.36 104.987 30.504C107.099 32.648 108.155 35.64 108.155 39.48C108.155 43.32 107.099 46.28 104.987 48.36C102.875 50.408 100.027 51.432 96.4434 51.432C92.8914 51.432 90.0594 50.392 87.9474 48.312C85.8354 46.232 84.7794 43.304 84.7794 39.528ZM119.497 27.72H126.505V29.736H119.497V44.616C119.497 46.504 119.721 47.816 120.169 48.552C120.617 49.256 121.337 49.608 122.329 49.608C123.321 49.608 124.665 49.368 126.361 48.888V50.664C124.121 51.272 122.297 51.576 120.889 51.576C116.985 51.576 115.033 49.224 115.033 44.52V29.736H110.905V27.72H115.033V22.776L119.497 20.232V27.72ZM129.408 27.72H137.184V48.264L140.544 49.224V51H129.168V49.224L132.672 48.168V30.024L129.408 29.448V27.72ZM130.992 17.496C130.992 16.632 131.264 15.96 131.808 15.48C132.384 14.968 133.136 14.712 134.064 14.712C135.024 14.712 135.792 14.968 136.368 15.48C136.944 15.96 137.232 16.632 137.232 17.496C137.232 18.328 136.96 19 136.416 19.512C135.872 20.024 135.104 20.28 134.112 20.28C133.152 20.28 132.384 20.04 131.808 19.56C131.264 19.048 130.992 18.36 130.992 17.496ZM163.309 39.528C163.309 36.072 162.781 33.512 161.725 31.848C160.669 30.152 158.941 29.304 156.541 29.304C154.173 29.304 152.413 30.12 151.261 31.752C150.141 33.352 149.581 35.928 149.581 39.48C149.581 43.032 150.141 45.592 151.261 47.16C152.381 48.696 154.093 49.464 156.397 49.464C158.733 49.464 160.461 48.68 161.581 47.112C162.733 45.512 163.309 42.984 163.309 39.528ZM144.733 39.528C144.733 35.752 145.805 32.776 147.949 30.6C150.093 28.392 152.925 27.288 156.445 27.288C159.997 27.288 162.829 28.36 164.941 30.504C167.053 32.648 168.109 35.64 168.109 39.48C168.109 43.32 167.053 46.28 164.941 48.36C162.829 50.408 159.981 51.432 156.397 51.432C152.845 51.432 150.013 50.392 147.901 48.312C145.789 46.232 144.733 43.304 144.733 39.528ZM173.63 27.672H181.406V34.44C182.686 29.704 185.534 27.336 189.95 27.336C192.542 27.336 194.462 28.136 195.71 29.736C196.958 31.304 197.582 33.48 197.582 36.264V48.168L201.278 49.224V51H189.902V49.224L193.118 48.264V36.84C193.118 34.248 192.766 32.392 192.062 31.272C191.39 30.152 190.318 29.592 188.846 29.592C186.574 29.592 184.814 30.68 183.566 32.856C182.35 35 181.742 38.232 181.742 42.552V48.264L185.102 49.224V51H173.63V49.224L177.182 48.216V30.072L173.63 29.4V27.672ZM229.477 51H221.029V46.152C219.525 49.672 216.885 51.432 213.109 51.432C210.581 51.432 208.661 50.888 207.349 49.8C206.037 48.68 205.381 47.128 205.381 45.144C205.381 42.328 206.613 40.312 209.077 39.096C211.573 37.848 215.525 37.176 220.933 37.08V35.016C220.933 32.744 220.469 31.208 219.541 30.408C218.613 29.576 217.237 29.16 215.413 29.16C213.589 29.16 212.005 29.576 210.661 30.408L209.077 35.16H207.301V29.736C208.101 29.064 209.205 28.504 210.613 28.056C212.021 27.576 213.557 27.336 215.221 27.336C218.613 27.336 221.157 27.992 222.853 29.304C224.581 30.584 225.445 32.872 225.445 36.168V48.12L229.477 49.224V51ZM214.357 49.416C216.405 49.416 218.005 48.632 219.157 47.064C220.341 45.464 220.933 42.696 220.933 38.76C215.429 38.76 212.069 39.608 210.853 41.304C210.277 42.104 209.989 43.288 209.989 44.856C209.989 46.424 210.325 47.576 210.997 48.312C211.701 49.048 212.821 49.416 214.357 49.416ZM234.566 15H242.582V48.168L246.47 49.224V51H234.278V49.224L238.022 48.216V17.304L234.566 16.728V15ZM251.066 15H259.082V48.168L262.97 49.224V51H250.778V49.224L254.522 48.216V17.304L251.066 16.728V15ZM282.494 27.672H292.574V29.496L288.782 30.072L278.798 54.648C277.422 57.912 276.286 60.04 275.39 61.032C274.494 62.024 273.022 62.52 270.974 62.52H268.862V55.512H270.638L271.838 59.832C272.83 59.768 273.55 59.496 273.998 59.016C274.446 58.568 274.782 58.216 275.006 57.96C275.23 57.704 275.486 57.24 275.774 56.568C276.094 55.928 276.318 55.432 276.446 55.08C276.606 54.728 276.862 54.088 277.214 53.16C277.566 52.232 277.838 51.544 278.03 51.096L268.862 30.36L264.878 29.496V27.72H277.07V29.496L273.806 30.168L280.382 45.72L286.19 30.12L282.494 29.496V27.672Z" fill="black"/>
<path d="M148.951 10.7125C148.852 10.5389 148.719 10.3872 148.56 10.2669C148.401 10.1465 148.219 10.0599 148.026 10.0125C146.719 9.69572 145.362 9.65316 144.038 9.8875C144.601 7.4125 144.238 5.475 143.863 4.35C143.75 3.99603 143.51 3.69651 143.189 3.50946C142.868 3.32241 142.489 3.26114 142.126 3.3375C140.836 3.62935 139.617 4.1731 138.538 4.9375C137.775 3.10762 136.547 1.50896 134.976 0.3C134.716 0.105267 134.4 0 134.076 0C133.751 0 133.435 0.105267 133.176 0.3C131.604 1.50896 130.376 3.10762 129.613 4.9375C128.534 4.1731 127.315 3.62935 126.026 3.3375C125.662 3.26114 125.283 3.32241 124.962 3.50946C124.641 3.69651 124.401 3.99603 124.288 4.35C123.913 5.475 123.551 7.4125 124.113 9.8875C122.789 9.65316 121.432 9.69572 120.126 10.0125C119.932 10.0599 119.75 10.1465 119.591 10.2669C119.432 10.3872 119.299 10.5389 119.201 10.7125C119.002 11.0616 118.948 11.4743 119.051 11.8625C119.476 13.3625 120.776 16.2375 124.713 18.5125C128.651 20.7875 132.188 20.8 134.076 20.8C135.963 20.8 139.476 20.8 143.438 18.5125C147.401 16.225 148.676 13.3625 149.101 11.8625C149.203 11.4743 149.149 11.0616 148.951 10.7125ZM142.338 4.325C142.457 4.29713 142.582 4.31508 142.689 4.37528C142.795 4.43549 142.875 4.53355 142.913 4.65C143.276 5.775 143.638 7.775 142.876 10.35C142.863 10.375 142.863 10.4 142.851 10.425C142.551 11.4142 142.131 12.3629 141.601 13.25C140.531 15.083 139.108 16.6849 137.413 17.9625L137.101 18.1875C138.363 16.525 139.576 13.975 139.576 10.3C139.588 8.80661 139.36 7.32093 138.901 5.9C139.921 5.13619 141.093 4.5992 142.338 4.325V4.325ZM133.776 1.1C133.862 1.03509 133.967 1 134.076 1C134.184 1 134.289 1.03509 134.376 1.1C135.638 2.05 138.576 4.825 138.576 10.3C138.576 13.1875 137.776 15.6625 136.213 17.675C135.613 18.4628 134.891 19.1505 134.076 19.7125C133.26 19.1505 132.538 18.4628 131.938 17.675C130.376 15.6625 129.576 13.1875 129.576 10.3C129.576 4.825 132.513 2.05 133.776 1.1V1.1ZM125.238 4.65C125.276 4.53355 125.356 4.43549 125.462 4.37528C125.569 4.31508 125.694 4.29713 125.813 4.325C127.058 4.5992 128.23 5.13619 129.251 5.9C128.791 7.32093 128.563 8.80661 128.576 10.3C128.576 13.975 129.788 16.525 131.051 18.1875L130.738 17.9625C129.043 16.6849 127.62 15.083 126.551 13.25C126.02 12.3587 125.6 11.4058 125.301 10.4125L125.276 10.35C124.513 7.775 124.876 5.775 125.238 4.65V4.65ZM120.013 11.5875C119.996 11.5248 119.992 11.4594 120 11.395C120.009 11.3306 120.03 11.2685 120.063 11.2125C120.132 11.1007 120.238 11.0167 120.363 10.975C121.695 10.6671 123.079 10.6628 124.413 10.9625C124.737 11.9325 125.16 12.8665 125.676 13.75C127.288 16.55 129.638 18.55 131.538 19.7C129.306 19.4815 127.149 18.7821 125.213 17.65C121.576 15.55 120.401 12.95 120.013 11.5875ZM148.138 11.5875C147.751 12.95 146.576 15.55 142.938 17.65C141.002 18.7821 138.845 19.4815 136.613 19.7C138.513 18.55 140.863 16.55 142.476 13.75C142.991 12.8665 143.414 11.9325 143.738 10.9625C145.072 10.6628 146.456 10.6671 147.788 10.975C147.913 11.0167 148.019 11.1007 148.088 11.2125C148.121 11.2685 148.142 11.3306 148.151 11.395C148.159 11.4594 148.155 11.5248 148.138 11.5875V11.5875Z" fill="black"/>
</svg>
